# xmcd
#
# Track frame offsets:
#	150
#	18337
#	29555
#	45844
#	56832
#
# Disc length: 912 seconds
# Revision: 0
# Processed by: cddbd v1.5.2PL0 Copyright (c) Steve Scherf et al.
# Submitted via: dBpowerAMP V12.0
#
DISCID=37038e05
DTITLE=Elenne May - Lilies and Blue Veined Hands
DYEAR=2011
DGENRE=Blues
TTITLE0=My White Gown gone Grey
TTITLE1=Bad Thoughts
TTITLE2=Like a Lily among Thorns
TTITLE3=How they Love Transperancy
TTITLE4=The Night, a Revealing Atmosphere
EXTD=
EXTT0=
EXTT1=
EXTT2=
EXTT3=
EXTT4=
PLAYORDER=
